<?xml version="1.0" standalone="no"?>
<!DOCTYPE svg PUBLIC "-//W3C//DTD SVG 20010904//EN"
 "http://www.w3.org/TR/2001/REC-SVG-20010904/DTD/svg10.dtd">
<svg version="1.0" xmlns="http://www.w3.org/2000/svg"
 width="700.000000pt" height="700.000000pt" viewBox="0 0 700.000000 700.000000"
 preserveAspectRatio="xMidYMid meet">
<metadata>
Created by potrace 1.14, written by Peter Selinger 2001-2017
</metadata>
<g transform="translate(0.000000,700.000000) scale(0.100000,-0.100000)"
fill="#000000" stroke="none">
<path d="M3280 6994 c-19 -2 -84 -9 -145 -14 -496 -48 -1016 -223 -1448 -487
-265 -162 -469 -325 -693 -554 -554 -568 -876 -1251 -976 -2074 -16 -135 -16
-591 0 -730 70 -589 255 -1100 567 -1570 231 -347 545 -672 882 -913 489 -350
1044 -560 1668 -634 144 -16 586 -16 735 1 688 78 1331 348 1854 779 127 105
340 316 451 447 450 532 722 1168 807 1890 16 139 16 595 0 730 -103 852 -447
1557 -1043 2141 -554 541 -1251 874 -2029 970 -117 15 -553 27 -630 18z m477
-285 c1190 -97 2219 -833 2698 -1929 53 -120 140 -368 133 -376 -3 -2 -70 4
-149 15 -123 17 -193 19 -489 17 -366 -3 -452 -10 -710 -62 -678 -135 -1303
-466 -1804 -954 -97 -95 -263 -276 -292 -319 -2 -2 -49 38 -106 89 -486 434
-1051 701 -1698 802 -127 20 -184 22 -465 23 -293 0 -408 -7 -529 -31 l-29 -6
7 53 c24 183 129 541 221 749 299 680 810 1230 1460 1571 536 282 1152 408
1752 358z m2526 -2488 c55 -21 143 -376 167 -669 18 -220 -13 -462 -86 -682
-43 -129 -67 -174 -173 -323 -245 -343 -532 -655 -815 -886 -43 -35 -79 -61
-81 -59 -2 2 7 88 20 190 53 418 59 880 16 1162 -44 282 -127 641 -226 981
-24 83 -45 157 -47 165 -2 11 21 21 87 38 106 27 344 68 465 81 117 12 643 13
673 2z m270 -32 c43 -7 84 -18 91 -25 13 -12 36 -137 56 -304 6 -47 13 -164
17 -260 l6 -175 -57 -107 c-89 -169 -139 -249 -133 -213 52 312 17 716 -89
1029 -13 38 -24 71 -24 74 0 2 12 1 28 -2 15 -3 62 -10 105 -17z m-1576 -189
c43 -139 141 -514 177 -675 91 -410 117 -691 98 -1047 -12 -233 -40 -500 -69
-677 l-18 -105 -110 -74 c-154 -103 -305 -192 -480 -283 -147 -76 -404 -193
-411 -187 -2 2 1 96 5 208 33 812 -106 1555 -394 2108 -54 102 -63 127 -52
136 386 316 673 483 1082 632 66 24 127 42 135 41 8 -1 23 -32 37 -77z m-3822
-202 c4 -4 -13 -69 -38 -145 -123 -373 -164 -631 -154 -982 4 -155 10 -220 30
-311 13 -63 23 -116 22 -118 -5 -6 -207 312 -290 458 -199 348 -364 744 -409
980 -10 53 -11 77 -4 81 11 7 113 24 238 39 79 10 595 8 605 -2z m315 -44
c161 -31 345 -84 490 -141 126 -50 325 -143 352 -164 15 -13 10 -33 -62 -256
-140 -428 -212 -727 -245 -1016 -28 -244 -19 -603 21 -909 4 -26 3 -48 -1 -48
-11 0 -136 94 -265 199 -215 174 -576 561 -592 634 -4 18 -21 95 -38 172 -67
299 -81 453 -61 695 22 260 54 412 147 698 l57 172 36 -5 c20 -4 92 -17 161
-31z m-1072 -639 c61 -139 172 -358 250 -493 l70 -121 -129 0 c-71 0 -133 -3
-139 -6 -19 -12 -105 323 -134 525 -15 101 -36 324 -35 365 0 11 17 -25 38
-80 21 -55 57 -141 79 -190z m2202 157 c249 -174 493 -411 688 -669 l62 -81
-54 -144 c-152 -407 -225 -688 -257 -988 -16 -151 -6 -437 21 -614 11 -76 20
-142 18 -147 -4 -11 -338 152 -523 256 -223 125 -395 235 -404 258 -5 12 -19
112 -32 222 -30 257 -33 649 -6 845 40 286 99 526 229 927 l81 252 56 -36 c31
-19 85 -56 121 -81z m1114 -114 c121 -247 200 -488 261 -793 60 -303 96 -667
94 -970 l-1 -150 -24 130 c-107 565 -333 1050 -696 1491 -32 39 -58 74 -58 79
0 23 316 365 338 365 6 0 45 -69 86 -152z m2976 -99 c-6 -46 -16 -105 -21
-131 l-10 -46 -61 -11 c-34 -6 -63 -9 -65 -7 -2 1 21 43 50 92 29 49 66 112
82 141 16 29 31 50 33 48 2 -1 -2 -41 -8 -86z m-67 -346 c-69 -274 -191 -573
-331 -816 -37 -66 -48 -78 -66 -74 -137 32 -230 49 -325 60 l-114 12 78 85
c171 186 338 397 490 620 43 63 80 117 82 119 4 6 164 49 185 50 15 1 15 -4 1
-56z m-5883 -326 l54 -12 107 -153 c117 -170 265 -360 388 -497 l81 -90 -63
-7 c-129 -15 -214 -30 -289 -50 -62 -17 -80 -19 -92 -9 -51 43 -240 353 -331
544 -93 195 -120 268 -103 278 19 12 183 9 248 -4z m2723 -44 c215 -361 352
-768 402 -1196 20 -177 20 -509 0 -681 -8 -71 -18 -132 -21 -135 -8 -8 -233
70 -449 156 -104 41 -192 77 -194 79 -8 7 -50 313 -62 444 -27 327 33 700 186
1135 37 105 72 205 78 223 5 17 14 32 18 32 4 0 23 -26 42 -57z m2507 -574
c93 -14 210 -41 210 -50 0 -11 -104 -154 -189 -259 -158 -196 -440 -458 -643
-597 l-66 -45 -129 36 c-155 44 -321 79 -506 106 -76 11 -141 20 -145 20 -4 0
43 26 103 56 376 192 748 448 1013 697 l63 60 112 -7 c62 -4 141 -11 177 -17z
m-4465 -268 c300 -265 559 -454 858 -626 64 -37 117 -71 117 -75 0 -4 -35 -10
-77 -14 -99 -8 -228 -30 -374 -63 l-117 -26 -63 38 c-268 161 -529 376 -736
605 -57 63 -103 117 -103 121 0 17 167 50 300 59 124 9 168 5 195 -19z m3027
-632 c170 -21 457 -75 568 -107 l64 -19 -69 -40 c-184 -107 -451 -222 -665
-286 -129 -39 -358 -92 -366 -85 -2 3 0 36 6 74 6 38 13 142 17 232 4 100 10
165 17 170 41 27 188 80 223 81 23 1 115 -8 205 -20z m-1689 -253 c205 -99
470 -214 655 -282 l132 -49 -117 -3 c-432 -11 -955 102 -1363 296 l-95 45 85
18 c47 10 141 25 210 33 311 39 287 42 493 -58z"/>
<path d="M3452 6137 c-30 -32 -28 -71 4 -96 35 -27 59 -26 89 4 30 30 31 54 4
89 -26 33 -68 34 -97 3z"/>
<path d="M3440 5653 c-43 -22 -80 -76 -80 -117 0 -17 8 -46 18 -65 63 -124
241 -93 258 45 13 104 -103 185 -196 137z"/>
<path d="M3425 5025 c-22 -8 -57 -32 -77 -53 -79 -85 -76 -206 6 -288 84 -85
208 -85 292 0 85 84 85 208 0 292 -61 61 -138 78 -221 49z"/>
</g>
</svg>
