<svg width="120" height="120" viewBox="0 0 120 120" fill="none" xmlns="http://www.w3.org/2000/svg">
<path d="M109.796 88.75C106.021 95.2894 100.994 101.021 95.0038 105.618C89.0132 110.215 82.1758 113.586 74.8821 115.541C67.5884 117.495 59.9812 117.994 52.4947 117.008C45.0083 116.022 37.7894 113.572 31.25 109.796C24.7106 106.021 18.9789 100.994 14.3822 95.0038C9.78542 89.0132 6.41361 82.1758 4.45926 74.8821C2.50492 67.5884 2.00632 59.9811 2.99192 52.4947C3.97753 45.0083 6.42804 37.7894 10.2035 31.25C13.979 24.7106 19.0056 18.9789 24.9962 14.3822C30.9868 9.78542 37.8242 6.41361 45.1179 4.45926C52.4116 2.50492 60.0189 2.00632 67.5053 2.99192C74.9917 3.97753 82.2106 6.42804 88.75 10.2035C95.2894 13.979 101.021 19.0056 105.618 24.9962C110.215 30.9868 113.586 37.8242 115.541 45.1179C117.495 52.4116 117.994 60.0189 117.008 67.5053C116.022 74.9917 113.572 82.2106 109.796 88.75L109.796 88.75Z" stroke="#EBBE1E" stroke-width="5" stroke-linecap="round" stroke-linejoin="round"/>
</svg>
