<svg width="88" height="94" viewBox="0 0 88 94" fill="none" xmlns="http://www.w3.org/2000/svg">
<path d="M85.616 70.155C86.5509 70.7156 86.8579 71.9307 86.2585 72.8413C80.94 80.9215 73.2465 87.1786 64.2155 90.7336C54.5712 94.5301 43.9424 95.0321 33.9832 92.1615C24.024 89.291 15.2929 83.2089 9.1487 74.8618C3.00449 66.5147 -0.208236 56.3706 0.0104709 46.0083C0.229177 35.6459 3.86705 25.6465 10.358 17.566C16.8489 9.48554 25.8288 3.77727 35.9003 1.32951C45.9718 -1.11825 56.5699 -0.168217 66.0454 4.03177C74.9184 7.96467 82.341 14.5408 87.3139 22.8382C87.8743 23.7733 87.5164 24.9743 86.5586 25.495V25.495C85.6007 26.0157 84.4061 25.6585 83.842 24.7256C79.2875 17.1922 72.5226 11.2211 64.4457 7.64102C55.766 3.79382 46.0581 2.92359 36.8326 5.16574C27.6071 7.4079 19.3815 12.6367 13.4358 20.0384C7.49013 27.4401 4.15783 36.5996 3.9575 46.0916C3.75716 55.5835 6.70003 64.8755 12.3281 72.5215C17.9562 80.1675 25.9539 85.7387 35.0766 88.3681C44.1993 90.9975 53.9352 90.5376 62.7695 87.0601C70.9903 83.824 78.0011 78.1437 82.8694 70.8091C83.4723 69.9008 84.681 69.5944 85.616 70.155V70.155Z" fill="#EBBE1E"/>
</svg>
