<svg width="244" height="100" viewBox="0 0 244 100" fill="none" xmlns="http://www.w3.org/2000/svg">
<path fill-rule="evenodd" clip-rule="evenodd" d="M45.6576 91.8853C49.0684 93.3651 52.2651 94.5432 54.9579 95.3959C55.3146 93.1646 55.5 90.8753 55.5 88.5417C55.5 80.0938 53.0691 72.216 48.868 65.5686L48.8046 65.7349C47.6529 68.7548 45.8979 73.3565 45.1463 78.2824C44.3714 83.3608 44.8928 86.7189 45.3317 89.5457C45.4582 90.3602 45.5778 91.1306 45.6576 91.8853ZM38.094 89.9395C43.0012 92.5033 47.852 94.5279 51.9211 95.9606C51.284 95.9868 50.6435 96 50 96C42.5629 96 35.538 94.2351 29.3213 91.1012C30.9012 90.739 32.4201 90.493 33.7419 90.3263C35.0291 90.164 36.1218 90.0779 36.8911 90.0325C37.2757 90.0098 37.579 89.9972 37.785 89.9904C37.888 89.9869 37.9666 89.9849 38.0189 89.9838L38.0772 89.9827L38.0911 89.9825L38.0941 89.9824L38.0946 89.9824L38.0945 89.9787L38.094 89.9395ZM33.5543 88.8381C31.7576 89.0646 29.5805 89.4367 27.3558 90.0497C22.3592 87.2186 17.9449 83.4794 14.3369 79.0564C15.7222 78.6378 17.075 78.418 18.2304 78.3083C19.1817 78.218 19.9894 78.2031 20.5568 78.2108C20.823 78.2143 21.0357 78.2228 21.1849 78.2307C25.3671 82.2426 30.4721 85.7256 35.6482 88.618C35.0357 88.6695 34.329 88.7404 33.5543 88.8381ZM18.0887 76.815C16.7175 76.9452 15.051 77.2238 13.3465 77.7984C10.6038 74.1877 8.38252 70.1594 6.79465 65.8256C7.85467 65.6882 8.765 65.6886 9.5028 65.7476C10.2357 65.8063 10.8009 65.923 11.1757 66.022C11.2589 66.044 11.3327 66.0651 11.3968 66.0845C12.588 67.938 13.8784 69.7814 15.2524 71.5603L15.2531 71.5679L15.258 71.5675C16.6499 73.3692 18.1274 75.1047 19.6741 76.7177C19.2089 76.7306 18.674 76.7594 18.0887 76.815ZM9.62242 64.2524C8.71113 64.1795 7.59039 64.1876 6.29268 64.3811C4.93332 60.2473 4.14406 55.8547 4.01792 51.2965C4.07405 51.4618 4.13187 51.6287 4.19132 51.7968C5.07271 54.2901 6.33326 57.1363 7.89938 60.1004C8.63268 61.4883 9.43433 62.9045 10.2972 64.3248C10.0874 64.2964 9.86226 64.2716 9.62242 64.2524ZM5.60556 51.2969C4.89721 49.2931 4.46061 47.5759 4.30817 46.2594C6.93874 45.7381 9.57141 45.505 12.5 45.505C13.9041 45.505 15.2924 45.5723 16.6619 45.7039C16.5232 46.1629 16.3472 46.6703 16.1501 47.2387C15.3281 49.6082 14.1382 53.0382 13.7519 58.4466C13.4966 62.0212 13.7945 64.4237 14.203 66.4017C14.3354 67.0427 14.473 67.6172 14.6045 68.1597C12.5615 65.271 10.7456 62.2764 9.22563 59.3996C7.68757 56.4887 6.45854 53.7099 5.60556 51.2969ZM17.5326 47.8434C17.7807 47.1271 18.0038 46.4827 18.1745 45.8763C23.5866 46.5902 28.6813 48.3114 33.2647 50.846C33.1088 51.4213 32.826 52.2696 32.4722 53.3306L32.4722 53.3307C31.3511 56.693 29.5179 62.1907 28.7566 67.9009C27.946 73.98 28.5394 78.6959 28.977 82.1737C29.0002 82.3577 29.0229 82.5382 29.0449 82.7152C26.3314 80.8012 23.7759 78.7153 21.5303 76.4697C19.8361 74.7755 18.2177 72.9193 16.6982 70.9762C16.5629 69.8717 16.3144 68.8428 16.0628 67.8007C15.9278 67.2416 15.7919 66.6787 15.672 66.0983C15.2889 64.243 15.0034 61.9788 15.2481 58.5534C15.6183 53.3704 16.7119 50.2129 17.5326 47.8434ZM33.8407 53.9806C34.1528 53.0443 34.4186 52.2466 34.6044 51.6187C38.0284 53.6766 41.1427 56.1982 43.8611 59.0973C45.3054 60.6376 46.6376 62.2842 47.8448 64.0241C47.7333 64.3213 47.6084 64.6488 47.473 65.0034L47.4729 65.0039C46.3293 68.0007 44.444 72.9409 43.6635 78.0561C42.8501 83.3867 43.4168 87.021 43.86 89.863C43.9312 90.3198 43.9992 90.7561 44.0578 91.1758C39.6769 89.1902 35.026 86.7295 30.6882 83.8412C30.6238 83.2372 30.5436 82.5977 30.4587 81.9199C30.0231 78.4454 29.4614 73.9643 30.2434 68.0991C30.9823 62.5575 32.7132 57.3637 33.8407 53.9807L33.8407 53.9806ZM58.0068 95.3056C58.3318 93.0974 58.5 90.8389 58.5 88.5417L58.4999 88.437L58.6411 88.3843C59.4269 88.0901 60.379 87.7138 61.4604 87.2489L61.464 87.2491L61.4809 87.2501L61.5509 87.2544C61.6133 87.2584 61.7067 87.2646 61.8286 87.2735C62.0725 87.2914 62.4305 87.32 62.8827 87.363C63.7874 87.449 65.0679 87.5923 66.5665 87.821C68.6952 88.146 71.248 88.6411 73.7818 89.3834C69.0198 92.2652 63.6931 94.3076 58.0068 95.3056ZM46.9101 57.9889C52.8856 64.7247 56.9174 73.2298 58.1227 82.6188C58.1274 82.452 58.1317 82.282 58.1355 82.1088C58.2133 78.5173 58.0648 73.5656 57.1616 68.1228C56.2606 62.6924 54.8057 58.6301 53.5833 55.9348C52.972 54.5869 52.4187 53.5806 52.0216 52.9159C51.9568 52.8074 51.8962 52.708 51.8401 52.6177C50.0667 54.2813 48.4182 56.0769 46.9101 57.9889ZM70.7331 41.634C64.0909 43.6769 58.0562 47.1092 52.9672 51.5929C53.0649 51.7453 53.1799 51.9298 53.3094 52.1466C53.7336 52.8569 54.3135 53.9131 54.9494 55.3152C56.2214 58.1199 57.7172 62.3076 58.6414 67.8772C59.5635 73.4344 59.7144 78.4827 59.6351 82.1412C59.5956 83.966 59.4988 85.4473 59.4113 86.4764C60.7227 85.95 62.3276 85.2543 64.1212 84.3712C67.0142 82.947 70.3905 81.0391 73.8151 78.5735C73.8254 78.5153 73.837 78.4487 73.85 78.374C73.9051 78.0549 73.9831 77.5884 74.0735 77.0014C74.2545 75.8272 74.4854 74.1727 74.6846 72.2546C75.0841 68.4074 75.3511 63.5436 74.8505 59.373C74.3465 55.1735 73.2089 50.3939 72.1909 46.6482C71.6829 44.7788 71.2066 43.1739 70.8575 42.0368C70.814 41.8951 70.7725 41.7607 70.7331 41.634ZM72.2914 41.5966C72.2504 41.463 72.2112 41.3359 72.1738 41.2153C76.2593 40.097 80.56 39.5 85 39.5C86.8017 39.5 88.4365 39.55 90.0081 39.6809C90.0622 39.8125 90.1171 39.95 90.1727 40.0933C90.8859 41.9324 91.707 44.7423 92.104 48.5772C92.496 52.3636 91.9262 55.6401 91.2573 57.971C90.9231 59.1356 90.565 60.0607 90.2925 60.691C90.1564 61.006 90.0417 61.2469 89.9624 61.4069C89.9304 61.4713 89.9042 61.5225 89.8846 61.5601C87.4113 65.2205 84.3772 69.1211 80.8046 72.6741C80.6901 72.788 80.5753 72.9011 80.4602 73.0135L80.4325 73.0157L80.416 73.0171L80.4111 73.0175L80.4094 73.0177L80.4089 73.0177C80.4088 73.0178 80.4087 73.0178 80.4094 73.0252L80.4124 73.0601C78.8288 74.6028 77.1915 76.0064 75.5484 77.2791L75.556 77.2299C75.7399 76.0366 75.9743 74.3571 76.1765 72.4096C76.5799 68.5255 76.8604 63.531 76.3398 59.1942C75.8227 54.8862 74.6628 50.024 73.6384 46.2548C73.1253 44.3667 72.6443 42.7458 72.2914 41.5966ZM85 36.5C86.7651 36.5 88.3974 36.5466 89.981 36.6691C90.118 36.575 90.1182 36.5751 90.1183 36.5753L90.1187 36.5759L90.1198 36.5775L90.1225 36.5815L90.1308 36.5938C90.1348 36.5997 90.1396 36.607 90.1452 36.6155C90.149 36.6213 90.1532 36.6277 90.1577 36.6347C90.1671 36.6492 90.1781 36.6662 90.1905 36.6858C91.5414 36.7964 92.8594 36.9635 94.1973 37.2055C88.6547 18.0255 70.9653 4 50 4C26.9157 4 7.80286 21.004 4.50356 43.1701C7.08135 42.711 9.67455 42.505 12.5 42.505C25.101 42.505 36.5201 47.5775 44.8264 55.7894C54.2629 44.0312 68.7527 36.5 85 36.5ZM93.596 48.4228C93.2055 44.6507 92.416 41.8096 91.687 39.8554C92.7924 39.9942 93.8847 40.1804 95.0022 40.4256C95.656 43.514 96 46.7168 96 50C96 50.3763 95.9955 50.7515 95.9865 51.1257C95.327 52.4422 94.4905 54.0289 93.4806 55.7884C93.3946 55.9382 93.3074 56.0892 93.219 56.2414C93.6545 54.0556 93.903 51.3882 93.596 48.4228ZM94.7815 56.5351C95.1248 55.9371 95.4484 55.3585 95.7522 54.8033C95.6119 56.1562 95.4128 57.4918 95.1578 58.8073C94.6429 58.8836 94.1527 58.9803 93.7088 59.0812C93.5297 59.1219 93.3567 59.1636 93.1913 59.2054C93.7616 58.2821 94.2918 57.3884 94.7815 56.5351ZM94.0413 60.5439C94.2931 60.4866 94.5551 60.4323 94.8233 60.3832C93.6909 65.2913 91.7732 69.899 89.2095 74.0669C87.436 73.5047 85.7142 73.2231 84.2807 73.087C83.6683 73.0288 83.1055 72.9969 82.61 72.9814C85.9524 69.5437 88.8053 65.8405 91.1532 62.3619L91.1562 62.3634L91.1566 62.3627L91.1575 62.361L91.1602 62.3561L91.1689 62.3401L91.1729 62.3327C91.4458 61.9281 91.7119 61.5265 91.9711 61.1287C92.0773 61.0922 92.2214 61.0442 92.3971 60.9888C92.8042 60.8607 93.3779 60.6946 94.0413 60.5439ZM84.1389 74.5802C85.3963 74.6996 86.8636 74.9354 88.3714 75.3791C84.971 80.5099 80.5691 84.9191 75.4445 88.328C72.4197 87.3398 69.2982 86.7207 66.7928 86.3382C65.8329 86.1917 64.9602 86.0794 64.2142 85.9943C64.4019 85.904 64.5918 85.8115 64.7838 85.717C69.5385 83.3761 75.6019 79.7413 81.1 74.4812C81.2246 74.4768 81.3683 74.473 81.5294 74.4709C82.1661 74.4623 83.072 74.4789 84.1389 74.5802ZM100 50C100 77.6142 77.6142 100 50 100C22.3858 100 0 77.6142 0 50C0 22.3858 22.3858 0 50 0C77.6142 0 100 22.3858 100 50ZM43.7544 57.1725L43.7544 57.1725L44.9553 58.0713L43.7544 57.1725ZM50 14C50.5523 14 51 13.5523 51 13C51 12.4477 50.5523 12 50 12C49.4477 12 49 12.4477 49 13C49 13.5523 49.4477 14 50 14ZM52 21C52 22.1046 51.1046 23 50 23C48.8954 23 48 22.1046 48 21C48 19.8954 48.8954 19 50 19C51.1046 19 52 19.8954 52 21ZM53 31C53 32.6569 51.6569 34 50 34C48.3431 34 47 32.6569 47 31C47 29.3431 48.3431 28 50 28C51.6569 28 53 29.3431 53 31Z" fill="#183E27"/>
<path d="M122.516 50V31.13H131.254C132.523 31.13 133.645 31.436 134.62 32.048C135.595 32.66 136.354 33.442 136.898 34.394C137.465 35.346 137.748 36.332 137.748 37.352C137.748 38.4173 137.476 39.426 136.932 40.378C136.411 41.33 135.674 42.1007 134.722 42.69C133.793 43.2793 132.693 43.574 131.424 43.574H125.882V50H122.516ZM125.882 40.616H131.22C132.127 40.616 132.863 40.3213 133.43 39.732C134.019 39.12 134.314 38.3267 134.314 37.352C134.314 36.3547 133.985 35.5727 133.328 35.006C132.671 34.4167 131.911 34.122 131.05 34.122H125.882V40.616Z" fill="#183E27"/>
<path d="M164.534 47.11C165.962 47.11 167.073 46.804 167.866 46.192C168.659 45.58 169.215 44.7867 169.532 43.812C169.872 42.8373 170.042 41.806 170.042 40.718V31.13H173.442V40.718C173.442 42.4407 173.136 44.016 172.524 45.444C171.935 46.872 170.983 48.0167 169.668 48.878C168.376 49.7167 166.676 50.136 164.568 50.136C162.936 50.136 161.553 49.8867 160.42 49.388C159.287 48.8667 158.369 48.164 157.666 47.28C156.986 46.396 156.487 45.3873 156.17 44.254C155.853 43.1207 155.694 41.942 155.694 40.718V31.13H159.06V40.718C159.06 41.8287 159.23 42.8713 159.57 43.846C159.91 44.798 160.477 45.58 161.27 46.192C162.086 46.804 163.174 47.11 164.534 47.11Z" fill="#183E27"/>
<path d="M192.969 50V31.13H202.047C203.294 31.13 204.404 31.436 205.379 32.048C206.354 32.66 207.113 33.442 207.657 34.394C208.224 35.346 208.507 36.332 208.507 37.352C208.507 38.576 208.144 39.7093 207.419 40.752C206.694 41.772 205.719 42.486 204.495 42.894L209.459 50H205.583L201.061 43.574H196.335V50H192.969ZM196.335 40.616H201.979C202.886 40.616 203.622 40.2987 204.189 39.664C204.778 39.0293 205.073 38.2587 205.073 37.352C205.073 36.4227 204.744 35.652 204.087 35.04C203.452 34.428 202.693 34.122 201.809 34.122H196.335V40.616Z" fill="#183E27"/>
<path d="M241.929 47.008V50H227.615V31.13H241.657V34.122H230.981V39.018H240.229V41.772H230.981V47.008H241.929Z" fill="#183E27"/>
<path d="M125.882 67.42V80H122.516V61.13H125.134L136.932 73.982V61.13H140.332V80H137.544L125.882 67.42Z" fill="#183E27"/>
<path d="M143.796 80L152.194 61.13H154.948L163.278 80H159.708L157.532 75.104H149.576L147.434 80H143.796ZM153.554 65.278L150.324 72.18H156.716L153.554 65.278Z" fill="#183E27"/>
<path d="M180.182 64.122H173.314V80H169.914V64.122H163.012V61.13H180.182V64.122Z" fill="#183E27"/>
<path d="M192.591 77.11C194.019 77.11 195.129 76.804 195.923 76.192C196.716 75.58 197.271 74.7867 197.589 73.812C197.929 72.8373 198.099 71.806 198.099 70.718V61.13H201.499V70.718C201.499 72.4407 201.193 74.016 200.581 75.444C199.991 76.872 199.039 78.0167 197.725 78.878C196.433 79.7167 194.733 80.136 192.625 80.136C190.993 80.136 189.61 79.8867 188.477 79.388C187.343 78.8667 186.425 78.164 185.723 77.28C185.043 76.396 184.544 75.3873 184.227 74.254C183.909 73.1207 183.751 71.942 183.751 70.718V61.13H187.117V70.718C187.117 71.8287 187.287 72.8713 187.627 73.846C187.967 74.798 188.533 75.58 189.327 76.192C190.143 76.804 191.231 77.11 192.591 77.11Z" fill="#183E27"/>
<path d="M206.916 80V61.13H215.994C217.24 61.13 218.351 61.436 219.326 62.048C220.3 62.66 221.06 63.442 221.604 64.394C222.17 65.346 222.454 66.332 222.454 67.352C222.454 68.576 222.091 69.7093 221.366 70.752C220.64 71.772 219.666 72.486 218.442 72.894L223.406 80H219.53L215.008 73.574H210.282V80H206.916ZM210.282 70.616H215.926C216.832 70.616 217.569 70.2987 218.136 69.664C218.725 69.0293 219.02 68.2587 219.02 67.352C219.02 66.4227 218.691 65.652 218.034 65.04C217.399 64.428 216.64 64.122 215.756 64.122H210.282V70.616Z" fill="#183E27"/>
<path d="M241.765 77.008V80H227.451V61.13H241.493V64.122H230.817V69.018H240.065V71.772H230.817V77.008H241.765Z" fill="#183E27"/>
</svg>
