<svg width="100" height="100" viewBox="0 0 100 100" fill="none" xmlns="http://www.w3.org/2000/svg">
<circle cx="50" cy="50" r="48" stroke="#183E27" stroke-width="4"/>
<path d="M44.8582 58.1848C53.9714 45.9353 68.559 38 85 38C89.6258 38 93.2483 38.3243 97.5 39.5" stroke="#183E27" stroke-width="3"/>
<path d="M1 45.5C4.79004 44.45 8.37571 44 12.5 44C37.0767 44 57 63.9233 57 88.5C57 91.9384 56.6101 95.2856 55.872 98.5" stroke="#183E27" stroke-width="3"/>
<path d="M3.5 45.5C3.66667 51.5 11 67 21 77C31 87 47 93.8333 56 96.5" stroke="#183E27" stroke-width="1.5"/>
<path d="M17.5 45.5C16.8333 48 15 51.5 14.5 58.5C14 65.5 15.6667 67.8333 16 71.5" stroke="#183E27" stroke-width="1.5"/>
<path d="M34 51C33.3333 53.5 30.5 60.5 29.5 68C28.5 75.5 29.6667 80.8333 30 84.5" stroke="#183E27" stroke-width="1.5"/>
<path d="M49 63C48.3192 65.2308 45.4261 71.4769 44.4049 78.1692C43.3838 84.8615 44.5751 88.7282 44.9155 92" stroke="#183E27" stroke-width="1.5"/>
<path d="M3.00012 66C8.50012 64 12.0001 65.5 12.0001 65.5" stroke="#183E27" stroke-width="1.5"/>
<path d="M11.2759 79.4931C16.0001 77 21.5001 77.5 21.5001 77.5" stroke="#183E27" stroke-width="1.5"/>
<path d="M24.4836 91.7865C30.7856 89.3138 38.0861 89.2325 38.0861 89.2325" stroke="#183E27" stroke-width="1.5"/>
<path d="M98.5001 47.5C98.5001 47.5 92.5716 62.0294 81.3335 73.2059C70.0954 84.3824 56.0001 88.5 56.0001 88.5" stroke="#183E27" stroke-width="1.5"/>
<path d="M89.5001 37C89.5001 37 92.0417 40.6923 92.85 48.5C93.6583 56.3077 90.5001 62 90.5001 62" stroke="#183E27" stroke-width="1.5"/>
<path d="M71.0001 40C71.0001 40 74.574 50.7761 75.5952 59.2836C76.6163 67.791 74.5001 79 74.5001 79" stroke="#183E27" stroke-width="1.5"/>
<path d="M52.0001 51.5C52.0001 51.5 56.0763 57 57.9015 68C59.7268 79 58.5001 88 58.5001 88" stroke="#183E27" stroke-width="1.5"/>
<path d="M98.5001 59.5C95.5001 59 91.5001 60.5 91.5001 60.5" stroke="#183E27" stroke-width="1.5"/>
<path d="M91.9033 75.9923C86.6234 73.2059 80.4763 73.7647 80.4763 73.7647" stroke="#183E27" stroke-width="1.5"/>
<path d="M77.1417 89.732C70.0983 86.9683 61.5001 86.5 61.5001 86.5" stroke="#183E27" stroke-width="1.5"/>
<circle cx="50" cy="31" r="3" fill="#183E27"/>
<circle cx="50" cy="21" r="2" fill="#183E27"/>
<circle cx="50" cy="13" r="1" fill="#183E27"/>
</svg>
