<svg display="none" xmlns="http://www.w3.org/2000/svg">
  <symbol id="insta" viewBox="0 0 30 31">
    <path
      d="M21.5389 0.511719H7.99439C3.58621 0.511719 0 4.09606 0 8.50194V22.0396C0 26.4453 3.58621 30.0296 7.99439 30.0296H21.5391C25.9471 30.0296 29.5333 26.4453 29.5333 22.0396V8.50194C29.5333 4.09606 25.9471 0.511719 21.5389 0.511719V0.511719ZM27.8019 22.0396C27.8019 25.4911 24.9924 28.2991 21.5389 28.2991H7.99439C4.54089 28.2991 1.73137 25.4911 1.73137 22.0396V8.50194C1.73137 5.05025 4.54089 2.24218 7.99439 2.24218H21.5391C24.9924 2.24218 27.8019 5.05025 27.8019 8.50194V22.0396Z"/>
    <path
      d="M14.7666 7.1996C10.3138 7.1996 6.69128 10.8202 6.69128 15.2707C6.69128 19.7211 10.3138 23.3417 14.7666 23.3417C19.2194 23.3417 22.8418 19.7211 22.8418 15.2707C22.8418 10.8202 19.2194 7.1996 14.7666 7.1996ZM14.7666 21.6113C11.2687 21.6113 8.42265 18.767 8.42265 15.2707C8.42265 11.7746 11.2687 8.93006 14.7666 8.93006C18.2647 8.93006 21.1105 11.7746 21.1105 15.2707C21.1105 18.767 18.2647 21.6113 14.7666 21.6113Z"/>
    <path
      d="M23.035 4.33318C21.7191 4.33318 20.6488 5.40312 20.6488 6.71808C20.6488 8.03327 21.7191 9.10322 23.035 9.10322C24.3508 9.10322 25.4213 8.03327 25.4213 6.71808C25.4213 5.40289 24.3508 4.33318 23.035 4.33318ZM23.035 7.37252C22.674 7.37252 22.3802 7.07886 22.3802 6.71808C22.3802 6.35708 22.674 6.06364 23.035 6.06364C23.3961 6.06364 23.69 6.35708 23.69 6.71808C23.69 7.07886 23.3961 7.37252 23.035 7.37252Z"/>
  </symbol>

  <symbol id="telegram" viewBox="0 0 31 22">
      <path
        d="M30.3116 0.382026C30.0175 0.0384337 29.53 -0.0889855 29.0965 0.0639175L1.56328 9.60915C1.01322 9.80094 0.627122 10.266 0.555445 10.8229C0.484454 11.3772 0.739103 11.915 1.2168 12.2245L5.1524 14.8019C5.53369 15.0517 6.02398 15.0785 6.43229 14.8718L14.9694 10.5529L8.31582 15.3191C8.00346 15.5429 7.81683 15.8999 7.81683 16.2738V20.6887C7.81683 21.1441 8.0772 21.5613 8.49627 21.7779C8.91603 21.9945 9.42304 21.973 9.82173 21.7208L12.8118 19.8181L15.7522 21.7414C16.0098 21.9108 16.3166 22 16.6263 22C16.7309 22 16.836 21.9897 16.9395 21.969C17.3524 21.8864 17.7177 21.6417 17.9419 21.2977L30.3988 1.59207C30.6413 1.21267 30.6065 0.727156 30.3116 0.382026ZM16.5605 20.2271L13.5155 18.2352C13.3037 18.0964 13.0596 18.0269 12.8157 18.0269C12.5771 18.0269 12.3382 18.0935 12.1291 18.2266L9.57647 19.851V16.523L21.3253 8.10692C21.85 7.73103 21.9821 7.04693 21.6324 6.51572C21.2825 5.98451 20.582 5.80503 20.0029 6.09809L5.88727 13.2391L2.55851 11.0591L27.9128 2.26937L16.5605 20.2271Z"/>
  </symbol>
</svg>