<svg width="40" height="40" viewBox="0 0 40 40" fill="none" xmlns="http://www.w3.org/2000/svg">
<circle cx="20" cy="20" r="18.5" fill="#183E27" stroke="#183E27" stroke-width="3"/>
<g clip-path="url(#clip0_1101_102)">
<path d="M26.3948 30.4509C26.2195 30.4509 26.0455 30.399 25.8962 30.2978L20.2549 26.4712L17.2292 28.6483C16.9919 28.8189 16.6861 28.8619 16.4105 28.7634C16.1353 28.6646 15.9263 28.4367 15.8517 28.1541L14.3325 22.3966L8.90414 20.321C8.5624 20.1902 8.33576 19.8633 8.33327 19.4974C8.33079 19.1315 8.55293 18.8015 8.89301 18.6662L29.5337 10.4531C29.6273 10.4133 29.7264 10.3903 29.8264 10.3842C29.8621 10.3821 29.898 10.3821 29.9337 10.3841C30.1406 10.3964 30.3439 10.4807 30.5026 10.6363C30.5191 10.6524 30.5347 10.6688 30.5495 10.686C30.681 10.8362 30.7532 11.0192 30.7668 11.2057C30.7701 11.2526 30.7699 11.3001 30.7657 11.3476C30.7629 11.3814 30.758 11.4152 30.7512 11.4487L27.2671 29.7291C27.2111 30.0227 27.0112 30.2685 26.7351 30.383C26.6256 30.4285 26.5099 30.4509 26.3948 30.4509ZM20.7502 24.6609L25.7753 28.0694L28.4862 13.8453L18.695 23.2668L20.7265 24.6449C20.7347 24.65 20.7425 24.6554 20.7502 24.6609ZM16.5671 23.9029L17.2399 26.4524L18.6895 25.4093L16.7913 24.1216C16.7031 24.062 16.6276 23.9876 16.5671 23.9029ZM11.6649 19.4748L15.3923 20.8999C15.6593 21.002 15.8608 21.2265 15.9338 21.5028L16.4065 23.2943C16.4282 23.0877 16.5218 22.8932 16.674 22.7468L26.0036 13.7695L11.6649 19.4748Z" fill="white"/>
</g>
<defs>
<clipPath id="clip0_1101_102">
<rect width="22.4359" height="20.8333" fill="white" transform="translate(8.33325 10)"/>
</clipPath>
</defs>
</svg>
